<?xml version="1.0" standalone="no"?>
<!DOCTYPE svg PUBLIC "-//W3C//DTD SVG 20010904//EN"
 "http://www.w3.org/TR/2001/REC-SVG-20010904/DTD/svg10.dtd">
<svg version="1.0" xmlns="http://www.w3.org/2000/svg"
 width="1024.000000pt" height="1024.000000pt" viewBox="0 0 1024.000000 1024.000000"
 preserveAspectRatio="xMidYMid meet">

<g transform="translate(0.000000,1024.000000) scale(0.100000,-0.100000)"
fill="#000000" stroke="none">
<path d="M2500 7080 c-14 -14 -16 -187 -18 -1534 -2 -1193 0 -1521 10 -1533
10 -12 45 -14 217 -12 114 2 212 0 218 -4 7 -5 21 -4 30 2 15 8 18 26 20 122
1 113 8 134 40 122 8 -3 18 -16 23 -28 5 -13 47 -55 95 -95 68 -57 103 -78
167 -101 186 -68 384 -77 553 -25 50 15 97 31 105 37 8 5 38 20 65 32 28 13
68 41 90 62 22 20 59 53 82 72 23 19 45 43 48 54 4 10 12 19 19 19 13 0 87
117 100 156 4 14 -1 30 -15 48 -25 31 -18 47 9 23 31 -28 50 -21 57 21 3 20
12 51 20 67 25 54 41 118 66 270 16 97 23 383 10 440 -6 27 -17 82 -25 120
-15 75 -54 191 -80 240 -9 17 -16 35 -16 41 0 6 -9 19 -20 29 -11 10 -20 26
-20 35 0 9 -11 27 -25 40 -14 13 -25 28 -25 34 0 30 -180 191 -255 228 -33 16
-71 36 -85 44 -14 7 -38 14 -53 14 -16 0 -37 5 -49 11 -11 6 -70 17 -131 26
-124 16 -237 12 -332 -12 -82 -21 -242 -103 -272 -140 -29 -34 -60 -54 -85
-55 -17 0 -18 36 -20 571 l-3 570 -250 2 c-213 2 -252 0 -265 -13z m1018 -977
c-3 -14 -12 -17 -36 -15 -18 1 -43 -4 -55 -12 -12 -8 -33 -17 -47 -21 -24 -7
-24 -6 7 23 21 21 38 29 51 25 11 -3 29 0 39 6 27 16 45 13 41 -6z m-188 -47
c0 -3 -4 -16 -10 -31 -9 -22 -13 -24 -31 -15 -20 11 -20 12 -3 31 15 17 44 26
44 15z m-250 -176 c0 -5 -7 -10 -16 -10 -8 0 -12 5 -9 10 3 6 10 10 16 10 5 0
9 -4 9 -10z m160 -150 c0 -5 -9 -10 -21 -10 -11 0 -17 5 -14 10 3 6 13 10 21
10 8 0 14 -4 14 -10z m394 -25 c90 -26 201 -133 251 -239 49 -107 55 -150 55
-384 0 -249 -6 -295 -50 -372 -63 -111 -76 -129 -141 -187 -94 -85 -134 -102
-261 -109 -97 -6 -109 -5 -141 15 -19 11 -47 21 -63 21 -21 0 -41 14 -82 57
-82 87 -142 174 -142 207 0 7 -9 33 -19 57 -41 94 -52 450 -17 533 9 21 16 46
16 56 0 24 60 157 93 205 14 22 44 51 64 64 21 14 47 32 58 41 23 19 96 47
140 54 52 8 182 -3 239 -19z m-697 -737 c-3 -7 -5 -2 -5 12 0 14 2 19 5 13 2
-7 2 -19 0 -25z m129 -349 c8 -14 -11 -33 -25 -25 -11 7 -4 36 9 36 5 0 12 -5
16 -11z m854 -8 c0 -6 -4 -13 -10 -16 -5 -3 -10 1 -10 9 0 9 5 16 10 16 6 0
10 -4 10 -9z m-1003 -403 c-3 -8 -6 -5 -6 6 -1 11 2 17 5 13 3 -3 4 -12 1 -19z"/>
<path d="M4836 7081 c-7 -10 -7 -3047 0 -3064 4 -11 53 -13 272 -13 l267 1 3
1543 2 1543 -270 -1 c-148 -1 -272 -5 -274 -9z m64 -65 c0 -3 -4 -8 -10 -11
-5 -3 -10 -1 -10 4 0 6 5 11 10 11 6 0 10 -2 10 -4z"/>
<path d="M6440 6160 c-115 -15 -259 -73 -349 -142 -105 -81 -221 -207 -221
-241 0 -8 -9 -22 -20 -32 -11 -10 -29 -43 -41 -74 -11 -31 -25 -61 -30 -67
-10 -13 -13 -21 -52 -154 -42 -143 -56 -554 -22 -649 8 -24 15 -65 15 -92 0
-26 4 -50 9 -54 5 -3 17 -30 25 -60 9 -30 21 -57 27 -61 7 -4 27 -40 46 -80
18 -41 49 -91 68 -111 83 -92 103 -111 146 -146 54 -44 200 -120 279 -147 129
-43 359 -52 429 -16 16 9 39 16 50 16 10 0 41 9 67 21 55 23 194 109 194 119
0 4 15 23 34 43 19 20 36 42 39 49 3 10 9 10 23 2 16 -10 19 -25 20 -110 1
-55 -3 -173 -9 -264 -8 -139 -13 -172 -33 -211 -12 -25 -30 -51 -38 -58 -9 -8
-16 -19 -16 -26 0 -18 -101 -92 -152 -111 -66 -25 -172 -38 -298 -37 -144 1
-236 11 -251 29 -6 8 -18 14 -25 14 -35 0 -126 129 -122 171 l3 24 -278 2
-278 2 6 -47 c4 -26 13 -70 21 -99 8 -28 14 -59 15 -70 0 -10 11 -38 24 -63
13 -25 29 -56 35 -70 10 -22 38 -51 145 -151 35 -32 158 -109 185 -115 14 -3
50 -14 80 -25 191 -66 687 -62 900 8 25 8 56 17 70 20 13 4 43 16 65 29 22 13
74 41 115 63 84 44 117 72 191 161 52 62 121 204 134 274 4 19 13 40 21 47 8
6 14 30 14 53 0 22 5 70 10 106 6 38 10 523 10 1170 l1 1105 -68 8 c-37 4
-153 6 -258 5 l-190 -3 0 -95 c0 -87 -2 -95 -20 -98 -13 -2 -42 19 -87 63 -40
38 -76 65 -88 65 -12 0 -36 11 -54 25 -95 72 -324 110 -516 85z m710 -312 c0
-16 -22 -8 -41 15 -28 33 -23 40 11 15 17 -12 30 -25 30 -30z m-1148 1 c-18
-16 -32 -25 -32 -20 0 14 51 63 58 56 4 -3 -8 -19 -26 -36z m875 -163 c106
-42 189 -110 219 -181 7 -19 18 -36 24 -40 5 -3 10 -16 10 -29 0 -13 9 -33 20
-46 14 -17 20 -38 20 -74 0 -28 7 -72 14 -97 24 -79 0 -327 -40 -416 -8 -17
-14 -42 -14 -55 0 -14 -11 -35 -25 -48 -14 -13 -25 -29 -25 -36 0 -7 -28 -35
-62 -62 -35 -28 -73 -59 -85 -70 -41 -37 -275 -54 -377 -27 -62 17 -206 138
-221 186 -4 13 -18 37 -31 52 -13 16 -24 38 -24 50 0 12 -7 31 -15 41 -8 11
-15 35 -15 53 0 18 -6 52 -14 75 -19 59 -12 213 15 340 19 84 88 228 111 228
5 0 14 13 19 29 10 29 117 111 145 111 7 0 14 5 16 12 14 42 234 44 335 4z
m-1037 -1132 c0 -17 -22 -14 -28 4 -2 7 3 12 12 12 9 0 16 -7 16 -16z m1220
-13 c0 -10 -30 -24 -37 -17 -3 3 -2 9 2 15 8 13 35 15 35 2z m-1100 -151 c0
-5 -2 -10 -4 -10 -3 0 -8 5 -11 10 -3 6 -1 10 4 10 6 0 11 -4 11 -10z m171
-166 c12 -14 11 -16 -5 -13 -11 2 -21 10 -24 17 -5 17 13 15 29 -4z m65 -34
c8 0 14 -4 14 -10 0 -16 -36 -11 -51 7 -12 15 -12 16 4 10 10 -4 25 -7 33 -7z
m1414 -591 c0 -5 -4 -9 -10 -9 -5 0 -10 7 -10 16 0 8 5 12 10 9 6 -3 10 -10
10 -16z m-43 -81 c-3 -8 -6 -5 -6 6 -1 11 2 17 5 13 3 -3 4 -12 1 -19z m-552
-48 c-3 -5 -13 -10 -21 -10 -8 0 -14 5 -14 10 0 6 9 10 21 10 11 0 17 -4 14
-10z m-1175 -49 c0 -22 -16 -36 -24 -22 -8 12 3 41 15 41 5 0 9 -9 9 -19z
m990 -1 c0 -5 -9 -10 -21 -10 -11 0 -17 5 -14 10 3 6 13 10 21 10 8 0 14 -4
14 -10z m600 -97 c0 -10 -32 -43 -42 -43 -5 0 -1 11 9 25 17 23 33 32 33 18z
m-1445 -54 c12 -19 -5 -23 -22 -6 -16 16 -16 17 -1 17 9 0 20 -5 23 -11z m149
-95 c9 -3 16 -10 16 -16 0 -14 -43 -5 -48 10 -4 13 7 15 32 6z m953 -30 c-9
-9 -28 6 -21 18 4 6 10 6 17 -1 6 -6 8 -13 4 -17z"/>
</g>
</svg>
